# xmcd
#
# Track frame offsets:
#	150
#	26493
#	40179
#	55939
#	78697
#	87151
#	102508
#	122960
#
# Disc length: 1926 seconds
# Revision: 0
# Processed by: cddbd v1.5.2PL0 Copyright (c) Steve Scherf et al.
# Submitted via: dBpowerAMP V12.0
#
DISCID=65078408
DTITLE=The Steel Wheels - Volume 2: Live at The Jefferson Theater
DYEAR=2018
DGENRE=Bluegrass\\Americana
TTITLE0=Wild As We Came Here
TTITLE1=Scrape Me Off The Ceiling
TTITLE2=Sing Me Like A Folk Song
TTITLE3=Nothing You Can't Lose
TTITLE4=Mountain Quake
TTITLE5=Find Your Mountain
TTITLE6=Broken Mandolin
TTITLE7=The Shape I'm In
EXTD=
EXTT0=
EXTT1=
EXTT2=
EXTT3=
EXTT4=
EXTT5=
EXTT6=
EXTT7=
PLAYORDER=
